<svg width="2006" height="723" viewBox="0 0 2006 723" fill="none" xmlns="http://www.w3.org/2000/svg">
<mask id="mask0_1_1979" style="mask-type:luminance" maskUnits="userSpaceOnUse" x="0" y="0" width="2006" height="723">
<path d="M2005.12 0H0V722.682H2005.12V0Z" fill="white"/>
</mask>
<g mask="url(#mask0_1_1979)">
<path d="M63.3506 133.092L258.437 17.3928C297.601 -5.79759 345.851 -5.79759 385.015 17.3928L580.224 133.092C619.388 156.283 643.575 199.261 643.575 245.641V477.04C643.575 523.421 619.388 566.399 580.224 589.589L385.015 705.289C345.851 728.479 297.601 728.479 258.437 705.289L63.2278 589.589C24.0633 566.399 -0.122925 523.421 -0.122925 477.04V245.641C-0.122925 199.261 24.0633 156.283 63.2278 133.092H63.3506Z" fill="#0056B3"/>
<path d="M472.177 280.674C473.564 263.89 461.38 249.124 444.962 247.693C428.544 246.263 414.11 258.711 412.723 275.495C411.335 292.279 423.521 307.045 439.938 308.476C456.356 309.906 470.789 297.458 472.177 280.674Z" fill="white"/>
<path d="M362.057 159.56C284.464 141.285 207.118 191.068 189.315 270.722C171.513 350.376 219.886 429.778 297.478 448.053C298.092 448.179 298.706 448.431 299.32 448.557C300.548 448.809 301.775 449.061 303.126 449.187C303.126 449.187 303.249 449.187 303.371 449.187C319.946 451.077 335.661 439.986 339.467 422.972C343.641 404.571 332.346 386.296 314.421 382.137C313.93 382.137 313.439 382.01 312.948 381.884C312.948 381.884 312.948 381.884 313.07 381.884C312.948 381.884 312.702 381.884 312.579 381.884C270.714 372.054 244.563 329.202 254.14 286.224C263.716 243.247 305.459 216.401 347.324 226.232C371.387 231.903 390.294 248.414 400.116 269.714C399.502 265.555 399.625 261.269 400.607 256.984C404.782 238.205 423.075 226.484 441.368 230.769C450.453 232.912 457.819 238.583 462.485 246.019C445.051 204.05 408.833 170.903 362.18 159.812L362.057 159.56Z" fill="white"/>
<path d="M330.854 336.562C347.042 333.805 357.978 318.043 355.281 301.356C352.585 284.67 337.276 273.378 321.089 276.135C304.9 278.892 293.965 294.653 296.661 311.34C299.358 328.027 314.666 339.319 330.854 336.562Z" fill="white"/>
<path d="M446.893 376.465C470.833 454.354 428.722 537.537 352.726 562.114C276.853 586.691 195.945 543.461 171.882 465.571C171.636 464.941 171.391 464.437 171.268 463.807C170.9 462.547 170.531 461.286 170.409 460.026C170.409 460.026 170.409 459.9 170.409 459.774C167.339 443.011 176.793 425.997 192.999 420.829C210.555 415.158 229.217 425.24 234.741 443.263C234.864 443.767 234.987 444.272 235.11 444.776C235.11 444.776 235.11 444.776 235.11 444.65C235.11 444.776 235.11 445.028 235.233 445.154C248.124 487.249 291.831 510.566 332.837 497.332C373.843 484.098 396.556 439.23 383.665 397.135C376.298 372.936 358.619 355.039 337.257 346.595C341.308 346.847 345.482 346.343 349.534 345.082C367.459 339.285 377.403 319.623 371.756 301.222C368.932 292.148 362.916 284.964 355.182 280.931C397.415 295.425 432.406 329.832 446.893 376.717V376.465Z" fill="white"/>
<path d="M760.331 447.548C745.108 443.011 732.83 437.088 723.622 429.904L739.828 392.976C748.668 399.655 759.226 404.949 771.381 408.982C783.535 413.015 795.69 415.032 807.967 415.032C821.472 415.032 831.54 413.015 838.047 408.856C844.553 404.697 847.746 399.277 847.746 392.345C847.746 387.304 845.781 383.145 841.975 379.742C838.169 376.339 833.258 373.692 827.242 371.676C821.227 369.659 813.124 367.391 802.934 364.996C787.219 361.215 774.327 357.308 764.383 353.527C754.315 349.746 745.721 343.57 738.601 335.126C731.48 326.681 727.797 315.338 727.797 301.222C727.797 288.871 730.989 277.78 737.496 267.823C744.003 257.867 753.702 249.926 766.838 244.129C779.852 238.331 795.813 235.306 814.72 235.306C827.856 235.306 840.748 236.945 853.27 240.096C865.793 243.373 876.843 247.91 886.296 253.959L871.563 291.14C852.534 280.049 833.504 274.503 814.351 274.503C800.969 274.503 791.147 276.772 784.763 281.183C778.379 285.594 775.187 291.518 775.187 298.702C775.187 305.886 778.87 311.305 786.236 314.834C793.603 318.363 804.898 321.892 819.999 325.295C835.714 329.076 848.605 332.983 858.55 336.764C868.617 340.545 877.211 346.595 884.332 354.913C891.453 363.231 895.136 374.322 895.136 388.438C895.136 400.538 891.821 411.629 885.314 421.585C878.807 431.542 868.862 439.482 855.726 445.28C842.589 451.077 826.506 454.102 807.722 454.102C791.393 454.102 775.678 451.834 760.454 447.296L760.331 447.548Z" fill="#171717"/>
<path d="M1079.05 287.989L1007.47 460.656C1000.23 479.435 991.267 492.669 980.463 500.231C969.782 507.919 956.89 511.7 941.667 511.7C933.441 511.7 925.215 510.44 917.235 507.793C909.132 505.146 902.625 501.491 897.469 496.954L914.288 463.429C917.849 466.706 921.9 469.226 926.566 470.991C931.231 472.755 935.774 473.764 940.316 473.764C946.578 473.764 951.734 472.251 955.663 469.1C959.591 465.949 963.152 460.782 966.221 453.472L966.835 451.96L898.205 287.989H945.595L990.039 398.395L1034.85 287.989H1079.05Z" fill="#171717"/>
<path d="M1241.85 303.743C1253.88 315.842 1260.02 333.739 1260.02 357.56V450.699H1214.1V364.744C1214.1 351.888 1211.4 342.184 1205.87 335.882C1200.35 329.58 1192.37 326.303 1182.06 326.303C1170.51 326.303 1161.18 329.958 1154.31 337.394C1147.43 344.83 1144 355.669 1144 370.163V450.573H1098.08V287.863H1142.03V306.894C1148.17 300.088 1155.66 294.795 1164.74 291.014C1173.83 287.233 1183.65 285.468 1194.46 285.468C1214.1 285.468 1229.94 291.518 1242.09 303.617L1241.85 303.743Z" fill="#171717"/>
<path d="M1346.45 440.238C1329.51 430.912 1316.12 417.804 1306.42 401.168C1296.73 384.531 1291.81 365.752 1291.81 344.704C1291.81 323.657 1296.73 304.877 1306.42 288.241C1316.12 271.604 1329.51 258.623 1346.45 249.17C1363.39 239.844 1382.54 235.054 1403.78 235.054C1421.71 235.054 1437.79 238.331 1452.28 244.759C1466.77 251.187 1478.8 260.513 1488.62 272.613L1457.93 301.601C1443.93 285.09 1426.74 276.772 1406.12 276.772C1393.35 276.772 1381.93 279.671 1371.99 285.342C1361.92 291.14 1354.18 299.08 1348.54 309.415C1342.89 319.749 1340.19 331.345 1340.19 344.452C1340.19 357.56 1343.01 369.281 1348.54 379.49C1354.18 389.825 1361.92 397.765 1371.99 403.562C1382.05 409.36 1393.35 412.133 1406.12 412.133C1426.74 412.133 1444.05 403.814 1457.93 387.052L1488.62 416.04C1478.8 428.391 1466.64 437.718 1452.03 444.146C1437.55 450.573 1421.34 453.85 1403.41 453.85C1382.42 453.85 1363.39 449.187 1346.45 439.734V440.238Z" fill="#171717"/>
<path d="M1661.36 303.743C1673.39 315.842 1679.53 333.739 1679.53 357.56V450.699H1633.61V364.744C1633.61 351.888 1630.91 342.184 1625.39 335.882C1619.86 329.58 1611.88 326.303 1601.57 326.303C1590.03 326.303 1580.7 329.958 1573.82 337.394C1566.95 344.83 1563.51 355.669 1563.51 370.163V450.573H1517.59V226.106H1563.51V304.751C1569.65 298.45 1577.02 293.66 1585.61 290.383C1594.2 287.107 1603.66 285.342 1613.85 285.342C1633.49 285.342 1649.33 291.392 1661.48 303.491L1661.36 303.743Z" fill="#171717"/>
<path d="M1841.59 303.617C1854.73 315.59 1861.36 333.739 1861.36 357.938V450.825H1818.39V430.534C1809.79 445.658 1793.59 453.22 1770.01 453.22C1757.86 453.22 1747.3 451.077 1738.34 446.918C1729.38 442.759 1722.62 436.836 1717.84 429.4C1713.17 421.963 1710.72 413.519 1710.72 403.941C1710.72 388.816 1716.24 376.969 1727.41 368.273C1738.46 359.576 1755.65 355.291 1778.85 355.291H1815.44C1815.44 344.956 1812.37 337.142 1806.36 331.597C1800.22 326.051 1791.13 323.278 1778.98 323.278C1770.51 323.278 1762.28 324.665 1754.05 327.312C1745.95 330.084 1738.95 333.739 1733.31 338.403L1716.85 305.382C1725.45 299.08 1735.88 294.291 1747.92 290.888C1759.95 287.485 1772.47 285.72 1785.24 285.72C1809.79 285.72 1828.7 291.77 1841.84 303.743L1841.59 303.617ZM1802.43 415.788C1808.56 412.007 1812.86 406.587 1815.44 399.277V382.641H1783.89C1764.98 382.641 1755.65 388.942 1755.65 401.672C1755.65 407.722 1757.98 412.511 1762.53 416.04C1767.19 419.569 1773.45 421.333 1781.56 421.333C1789.66 421.333 1796.41 419.443 1802.43 415.788Z" fill="#171717"/>
<path d="M2005.12 442.885C2000.58 446.288 1995.06 448.935 1988.43 450.573C1981.8 452.338 1974.92 453.094 1967.68 453.094C1948.77 453.094 1934.28 448.179 1923.97 438.222C1913.66 428.391 1908.5 413.771 1908.5 394.614V327.816H1884.07V291.518H1908.5V251.943H1954.42V291.518H1993.83V327.816H1954.42V394.11C1954.42 400.916 1956.14 406.209 1959.58 409.99C1963.01 413.771 1967.92 415.536 1974.19 415.536C1981.43 415.536 1987.69 413.519 1992.72 409.486L2005.12 442.759V442.885Z" fill="#171717"/>
</g>
</svg>
