<svg width="644" height="723" viewBox="0 0 644 723" fill="none" xmlns="http://www.w3.org/2000/svg">
<path d="M63.4735 133.092L258.559 17.3928C297.724 -5.79759 345.974 -5.79759 385.138 17.3928L580.347 133.092C619.511 156.283 643.698 199.261 643.698 245.641V477.04C643.698 523.421 619.511 566.399 580.347 589.589L385.138 705.289C345.974 728.479 297.724 728.479 258.559 705.289L63.3507 589.589C24.1862 566.399 0 523.421 0 477.04V245.641C0 199.261 24.1862 156.283 63.3507 133.092H63.4735Z" fill="#0056B3"/>
<path d="M472.299 280.674C473.687 263.89 461.503 249.124 445.084 247.693C428.667 246.263 414.233 258.711 412.846 275.495C411.458 292.279 423.643 307.045 440.061 308.476C456.479 309.906 470.912 297.458 472.299 280.674Z" fill="white"/>
<path d="M362.18 159.56C284.587 141.285 207.24 191.068 189.438 270.722C171.636 350.376 220.009 429.778 297.601 448.053C298.215 448.179 298.829 448.431 299.443 448.557C300.671 448.809 301.898 449.061 303.249 449.187C303.249 449.187 303.372 449.187 303.494 449.187C320.069 451.077 335.784 439.986 339.589 422.972C343.764 404.571 332.469 386.296 314.544 382.137C314.053 382.137 313.562 382.01 313.071 381.884C313.071 381.884 313.071 381.884 313.193 381.884C313.071 381.884 312.825 381.884 312.702 381.884C270.837 372.054 244.686 329.202 254.262 286.224C263.839 243.247 305.581 216.401 347.447 226.232C371.51 231.903 390.417 248.414 400.239 269.714C399.625 265.555 399.748 261.269 400.73 256.984C404.905 238.205 423.198 226.484 441.491 230.769C450.576 232.912 457.942 238.583 462.608 246.019C445.174 204.05 408.956 170.903 362.302 159.812L362.18 159.56Z" fill="white"/>
<path d="M330.977 336.562C347.165 333.805 358.101 318.043 355.404 301.356C352.708 284.67 337.399 273.378 321.212 276.135C305.023 278.892 294.087 294.653 296.784 311.34C299.481 328.027 314.789 339.319 330.977 336.562Z" fill="white"/>
<path d="M447.016 376.465C470.956 454.354 428.845 537.537 352.849 562.114C276.975 586.691 196.068 543.461 172.005 465.571C171.759 464.941 171.514 464.437 171.391 463.807C171.023 462.547 170.654 461.286 170.531 460.026C170.531 460.026 170.531 459.9 170.531 459.774C167.462 443.011 176.916 425.997 193.122 420.829C210.678 415.158 229.34 425.24 234.864 443.263C234.987 443.767 235.11 444.272 235.233 444.776C235.233 444.776 235.233 444.776 235.233 444.65C235.233 444.776 235.233 445.028 235.355 445.154C248.247 487.249 291.954 510.566 332.96 497.332C373.966 484.098 396.679 439.23 383.788 397.135C376.421 372.936 358.742 355.039 337.38 346.595C341.431 346.847 345.605 346.343 349.657 345.082C367.582 339.285 377.526 319.623 371.879 301.222C369.055 292.148 363.039 284.964 355.304 280.931C397.538 295.425 432.529 329.832 447.016 376.717V376.465Z" fill="white"/>
</svg>
